# xmcd
#
# Track frame offsets: 
#        150
#        13619
#        27073
#        40440
#        51246
#        61551
#        73220
#        85041
#        96408
#        108345
#        122547
#        136187
#        147398
#        158367
#        170418
#        181757
#
# Disc length: 2577 seconds
#
# Revision: 2
# Processed by: cddbd v1.5.2PL0 Copyright (c) Steve Scherf et al.
# Submitted via: ExactAudioCopy v0.95b4
#
DISCID=ca0a0f10
DTITLE=John Lee Hooker - Quadromania: John Lee Hooker. Guitar Lovin' M
DTITLE=an. CD2
DYEAR=2005
DGENRE=Blues
TTITLE0=Too Much Boogie
TTITLE1=Need Somebody
TTITLE2=Please Take Me Back
TTITLE3=Gotta Boogie
TTITLE4=Stuttering Blues
TTITLE5=Pouring down Rain
TTITLE6=Love My Baby
TTITLE7=Misbelieving Baby
TTITLE8=Wobbling Baby
TTITLE9=Goin' South
TTITLE10=My Baby Don't Love Me
TTITLE11=I Ain't Got Nobody
TTITLE12=Real Real Gone
TTITLE13=Guitar Lovin' Man
TTITLE14=Blue Monday
TTITLE15=My Baby Put Me Down
EXTD=
EXTT0=
EXTT1=
EXTT2=
EXTT3=
EXTT4=
EXTT5=
EXTT6=
EXTT7=
EXTT8=
EXTT9=
EXTT10=
EXTT11=
EXTT12=
EXTT13=
EXTT14=
EXTT15=
PLAYORDER=
